# xmcd
#
# Track frame offsets: 
#        150
#        20813
#        41213
#        55383
#        65890
#        80243
#        91780
#        104018
#        116378
#        126890
#        136588
#        147788
#        159965
#        173908
#        185375
#        201450
#        251438
#        263428
#        275638
#        288795
#
# Disc length: 4089 seconds
#
# Revision: 9
# Processed by: cddbd v1.5.2PL0 Copyright (c) Steve Scherf et al.
# Submitted via: ExactAudioCopy v1.3
#
DISCID=290ff714
DTITLE=Creedence Clearwater Revival - Chronicle
DYEAR=1976
DGENRE=Folk/Rock
TTITLE0=Susie Q, (1968)
TTITLE1=I Put A Spell On You, (1968)
TTITLE2=Proud Mary, (1969)
TTITLE3=Bad Moon Rising, (1969)
TTITLE4=Lodi, (1969)
TTITLE5=Green River, (1969)
TTITLE6=Commotion, (1969)
TTITLE7=Down On The Corner, (1969)
TTITLE8=Fortunate Son, (1969)
TTITLE9=Travelin' Band, (1970)
TTITLE10=Who'll Stop The Rain, (1970)
TTITLE11=Up Around The Bend, (1970)
TTITLE12=Run Through The Jungle, (1970)
TTITLE13=Lookin' Out My Back Door, (1970)
TTITLE14=Long As I Can See The Light, (1970)
TTITLE15=I Heard It Through The Grapevine, (1976)
TTITLE16=Have You Ever Seen The Rain?, (1971)
TTITLE17=Hey Tonight, (1971)
TTITLE18=Sweet Hitch-Hiker, (1971)
TTITLE19=Someday Never Comes, (1972)
EXTD=
EXTT0=
EXTT1=
EXTT2=
EXTT3=
EXTT4=
EXTT5=
EXTT6=
EXTT7=
EXTT8=
EXTT9=
EXTT10=
EXTT11=
EXTT12=
EXTT13=
EXTT14=
EXTT15=
EXTT16=
EXTT17=
EXTT18=
EXTT19=
PLAYORDER=
